<svg width="3437" height="1188" viewBox="0 0 3437 1188" fill="none" xmlns="http://www.w3.org/2000/svg">
<path fill-rule="evenodd" clip-rule="evenodd" d="M1912.01 1009.48C1912.01 1021.51 1923.09 1030.53 1934.73 1027.45C2124.1 977.396 2263.79 803.755 2263.79 597.238C2263.79 351.616 2066.18 152.5 1822.42 152.5C1578.66 152.5 1381.05 351.616 1381.05 597.238C1381.05 808.503 1527.25 985.362 1723.26 1030.71C1734.76 1033.37 1745.45 1024.4 1745.45 1012.59V907.23C1745.45 898.719 1739.76 891.3 1731.67 888.672C1669.59 868.518 1619.38 832.831 1581.05 781.61C1540.2 726.652 1519.77 662.969 1519.77 590.564C1519.77 494.895 1555.44 416.528 1626.79 355.463C1686.05 304.866 1753.5 279.568 1829.16 279.568C1926.68 279.568 2005.36 315.189 2065.19 386.432C2113.52 444.007 2137.69 510.452 2137.69 585.766C2137.69 659.625 2116.26 725.779 2073.39 784.227C2037.44 833.583 1988.23 868.397 1925.76 888.668C1917.68 891.291 1912.01 898.705 1912.01 907.204V1009.48ZM1906.4 657.527C1906.4 647.043 1897.9 638.543 1887.42 638.543H1770.47C1759.99 638.543 1751.49 647.043 1751.49 657.527V664.729C1751.49 680.827 1733.24 688.796 1724.13 675.524C1707.85 651.814 1699.71 623.785 1699.71 591.436C1699.71 554.506 1712.51 522.52 1738.11 495.477C1763.72 468.433 1794.07 454.912 1829.16 454.912C1863.97 454.912 1894.17 468.433 1919.78 495.477C1945.38 522.52 1958.18 554.506 1958.18 591.436C1958.18 622.801 1950.14 650.439 1934.05 674.351C1924.97 687.852 1906.4 679.948 1906.4 663.675V657.527Z" fill="#00BFFF"/>
<path d="M149.496 429.286C149.496 418.802 157.995 410.303 168.479 410.303H322.556C333.041 410.303 341.54 418.802 341.54 429.286V684.867C341.54 696.827 344.175 706.274 349.446 713.208C354.717 719.968 361.178 723.348 368.829 723.348C376.65 723.348 384.472 719.708 392.293 712.428C400.284 704.974 404.28 695.787 404.28 684.867V429.286C404.28 418.802 412.779 410.303 423.263 410.303H579.636C590.12 410.303 598.619 418.802 598.619 429.286V692.407C598.619 735.915 587.653 773.615 565.719 805.509C543.956 837.403 515.392 861.497 480.026 877.79C444.831 894.084 407.765 902.231 368.829 902.231C341.115 902.231 314.081 897.811 287.727 888.971C261.373 879.957 237.739 866.61 216.826 848.93C196.083 831.076 179.675 808.976 167.603 782.629C155.532 756.282 149.496 726.208 149.496 692.407V429.286Z" fill="#040B1D"/>
<path d="M662.847 874.699C652.363 874.699 643.863 866.2 643.863 855.716V571.014C643.863 532.707 654.32 499.946 675.233 472.733C696.316 445.345 724.116 424.718 758.631 410.851C793.146 396.985 829.702 390.051 868.298 390.051C907.744 390.051 945.235 397.331 980.77 411.891C1016.48 426.278 1045.29 447.859 1067.23 476.633C1089.33 505.406 1100.38 539.38 1100.38 578.554V855.716C1100.38 866.2 1091.88 874.699 1081.4 874.699H917.631C907.147 874.699 898.647 866.2 898.647 855.716V591.295C898.647 580.894 895.757 573.181 889.976 568.154C884.365 562.954 877.904 560.354 870.593 560.354C862.432 560.354 854.611 563.474 847.129 569.714C839.648 575.781 835.908 582.974 835.908 591.295V855.716C835.908 866.2 827.409 874.699 816.924 874.699H662.847Z" fill="#040B1D"/>
<path d="M1164.36 874.699C1153.87 874.699 1145.37 866.2 1145.37 855.716V414.495C1145.37 404.01 1153.87 395.511 1164.36 395.511H1326.08C1336.57 395.511 1345.07 404.01 1345.07 414.495V855.716C1345.07 866.2 1336.57 874.699 1326.08 874.699H1164.36Z" fill="#040B1D"/>
<path d="M2298.69 429.286C2298.69 418.802 2307.19 410.303 2317.68 410.303H2471.75C2482.24 410.303 2490.74 418.802 2490.74 429.286V684.867C2490.74 696.827 2493.37 706.274 2498.64 713.208C2503.91 719.968 2510.38 723.348 2518.03 723.348C2525.85 723.348 2533.67 719.708 2541.49 712.428C2549.48 704.974 2553.48 695.787 2553.48 684.867V429.286C2553.48 418.802 2561.98 410.303 2572.46 410.303H2728.83C2739.32 410.303 2747.82 418.802 2747.82 429.286V692.407C2747.82 735.915 2736.85 773.615 2714.92 805.509C2693.15 837.403 2664.59 861.497 2629.22 877.79C2594.03 894.084 2556.96 902.231 2518.03 902.231C2490.31 902.231 2463.28 897.811 2436.92 888.971C2410.57 879.957 2386.94 866.61 2366.02 848.93C2345.28 831.076 2328.87 808.976 2316.8 782.629C2304.73 756.282 2298.69 726.208 2298.69 692.407V429.286Z" fill="#040B1D"/>
<path d="M3273.48 555.594C3277.25 564.301 3273.61 574.378 3265.31 578.993L3058.26 694.188C3049.17 699.248 3037.69 696.042 3032.54 687.001L3002.08 633.567C2996.82 624.349 3000.14 612.613 3009.45 607.516L3067.73 575.588C3078.77 569.543 3080.51 554.419 3068.49 550.697C3062.72 548.907 3056.46 548.012 3049.82 548.012C3028.78 548.012 3007.75 557.627 2986.71 576.116C2982.36 579.814 2962.77 594.605 2956.97 610.136C2953.34 619.011 2954.06 627.146 2954.79 632.323C2955.52 638.979 2975.1 692.968 2991.79 712.197C3009.2 732.165 3028.78 741.779 3052 741.779C3085.71 741.779 3122.31 722.882 3160.26 685.087C3167.9 677.484 3180.28 677.046 3187.99 684.577L3268.56 763.339C3275.07 769.71 3276.21 779.87 3270.63 787.081C3255.21 807.039 3235.98 824.973 3213.77 840.881C3186.21 860.11 3157.19 874.162 3125.99 884.516C3094.8 894.13 3063.61 899.307 3032.41 899.307C3001.22 899.307 2972.2 894.13 2943.91 884.516C2915.62 874.902 2890.22 860.11 2867.01 839.402C2843.8 819.434 2825.66 793.549 2811.15 762.487C2797.37 731.425 2787.21 695.926 2785.04 655.25C2785.04 653.031 2785.04 652.292 2785.04 648.594C2785.04 644.896 2785.04 642.677 2785.04 642.677C2785.04 588.689 2797.37 542.096 2821.31 503.638C2845.25 465.181 2876.44 435.598 2913.44 416.369C2951.16 397.141 2988.89 386.787 3027.33 386.787C3142.63 386.787 3224.68 443.056 3273.48 555.594Z" fill="#040B1D"/>
</svg>
